<?xml version="1.0" encoding="UTF-8"?><svg id="Layer_2" xmlns="http://www.w3.org/2000/svg" viewBox="0 0 201.74026733 107.98375971"><defs><style>.cls-1{fill:#fff;}</style></defs><g id="Layer_1-2"><g><path class="cls-1" d="m81.63873529,5.31197124c0-2.8732533-2.53250411-5.31197124-5.42631772-5.31197124l-39.13947906.02858724c-3.14026061,0-5.68594482,2.52759732-5.68594482,5.64554662v5.53476031c0,2.8732533,2.34589944,5.20248531,5.23971306,5.20248531h23.1986899c2.89381362,0,5.23971306,2.32923201,5.23971306,5.20248531v22.80946535c0,2.8732533,2.34589944,5.20248531,5.23971306,5.20248531h6.0205975c2.89381362,0,5.31331501-2.32107388,5.31331501-5.19432718V5.31197124Z"/><path class="cls-1" d="m59.16889387,49.77865069h-21.55253431c-3.14641429,0-5.69696326-2.55062969-5.69696326-5.69696326v-21.55196928c0-3.14641429-2.55054897-5.69704398-5.69696326-5.69696326h-1.0109208l-6.04647516.00016144-7.17847398.00024216h0l-6.28976127.00024216C2.55345484,16.83695226.00613462,19.38556398.00613462,22.52971815v11.05490805h-.00613462v42.41710328c0,3.14633357,2.55054897,5.69696326,5.69696326,5.69696326h53.47128486c3.14641429,0,5.69680182-2.55054897,5.69696326-5.69680182l.00064575-20.52611553c.00016144-3.14641429-2.55054897-5.6971247-5.69696326-5.6971247Z"/><path class="cls-1" d="m103.79541515,49.87258692h4.04371078v14.11257038h13.19953901c9.96201067,0,17.10150727,3.40395114,17.10150727,15.02601886v23.3032922c0,3.13106315-2.53822819,5.66929134-5.66929134,5.66929134h-4.04371078v-26.39907802c0-5.59354899.06749304-10.12801638-10.12801638-10.12801638h-10.46002778v30.85780306c0,3.13106315-2.53822819,5.66929134-5.66929134,5.66929134h-4.04371078v-52.44188144c0-3.13106315,2.53822819-5.66929134,5.66929134-5.66929134Z"/><path class="cls-1" d="m167.4906469,71.45666531c-10.21101923,0-11.20705346,6.14346237-11.20705346,14.44499889s.99603423,14.6105875,11.20705346,14.6105875h13.29052824c2.058674,0,3.72755903,1.668885,3.72755906,3.72755901v.00000747c.00000002,2.0677218-1.67621968,3.74394152-3.74394148,3.74394152h-15.68164564c-14.94301601,0-18.84456716-8.79955364-18.84456716-22.0820955s3.90155116-21.9165069,18.84456716-21.9165069h14.70199386c2.05867402,0,3.72755906,1.66888505,3.72755906,3.72755907v.00000747c0,2.06772176-1.67621968,3.74394144-3.74394144,3.74394144l-12.27811167.00000002Z"/><g><path class="cls-1" d="m201.73990112,63.98467304h-4.04372136c-3.13106315,0-5.66929134,2.53822819-5.66929134,5.66929134v38.32979313h4.04408757c3.13106315,0,5.66929134-2.53822819,5.66929134-5.66929134v-16.12935368h-.00036621v-22.20043945Z"/><rect class="cls-1" x="192.02688842" y="49.20854999" width="9.71337891" height="8.96557617" rx="2.83464567" ry="2.83464567"/></g></g></g></svg>